<mxfile host="Electron" modified="2024-05-15T14:09:17.449Z" agent="Mozilla/5.0 (Windows NT 10.0; Win64; x64) AppleWebKit/537.36 (KHTML, like Gecko) draw.io/22.0.3 Chrome/114.0.5735.289 Electron/25.8.4 Safari/537.36" etag="Ll6IS18MHuN4OyD3RXJD" version="22.0.3" type="device">
  <diagram id="C5RBs43oDa-KdzZeNtuy" name="Page-1">
    <mxGraphModel dx="1036" dy="1775" grid="1" gridSize="10" guides="1" tooltips="1" connect="1" arrows="1" fold="1" page="1" pageScale="1" pageWidth="827" pageHeight="1169" math="0" shadow="0">
      <root>
        <mxCell id="WIyWlLk6GJQsqaUBKTNV-0" />
        <mxCell id="WIyWlLk6GJQsqaUBKTNV-1" parent="WIyWlLk6GJQsqaUBKTNV-0" />
        <mxCell id="Nd1uS5bIHaKxC9Gl-ecE-171" value="" style="edgeStyle=orthogonalEdgeStyle;rounded=0;orthogonalLoop=1;jettySize=auto;html=1;entryX=0.5;entryY=0;entryDx=0;entryDy=0;endArrow=none;endFill=0;exitX=0.5;exitY=1;exitDx=0;exitDy=0;" parent="WIyWlLk6GJQsqaUBKTNV-1" source="Nd1uS5bIHaKxC9Gl-ecE-29" target="Nd1uS5bIHaKxC9Gl-ecE-170" edge="1">
          <mxGeometry relative="1" as="geometry">
            <mxPoint x="1920" y="640" as="targetPoint" />
            <mxPoint x="1920" y="350" as="sourcePoint" />
          </mxGeometry>
        </mxCell>
        <mxCell id="Nd1uS5bIHaKxC9Gl-ecE-157" style="rounded=0;orthogonalLoop=1;jettySize=auto;html=1;entryX=0.5;entryY=0;entryDx=0;entryDy=0;endArrow=none;endFill=0;exitX=0.5;exitY=1;exitDx=0;exitDy=0;" parent="WIyWlLk6GJQsqaUBKTNV-1" source="Nd1uS5bIHaKxC9Gl-ecE-147" target="Nd1uS5bIHaKxC9Gl-ecE-98" edge="1">
          <mxGeometry relative="1" as="geometry">
            <mxPoint x="1390" y="190" as="targetPoint" />
            <mxPoint x="1390" y="-100" as="sourcePoint" />
          </mxGeometry>
        </mxCell>
        <mxCell id="Nd1uS5bIHaKxC9Gl-ecE-155" style="edgeStyle=orthogonalEdgeStyle;rounded=0;orthogonalLoop=1;jettySize=auto;html=1;entryX=0.5;entryY=0;entryDx=0;entryDy=0;endArrow=none;endFill=0;exitX=0.5;exitY=1;exitDx=0;exitDy=0;" parent="WIyWlLk6GJQsqaUBKTNV-1" source="Nd1uS5bIHaKxC9Gl-ecE-170" target="Nd1uS5bIHaKxC9Gl-ecE-59" edge="1">
          <mxGeometry relative="1" as="geometry">
            <mxPoint x="2000" y="390" as="targetPoint" />
            <mxPoint x="1760" y="390" as="sourcePoint" />
          </mxGeometry>
        </mxCell>
        <mxCell id="Nd1uS5bIHaKxC9Gl-ecE-82" style="edgeStyle=orthogonalEdgeStyle;rounded=0;orthogonalLoop=1;jettySize=auto;html=1;exitX=1;exitY=0.5;exitDx=0;exitDy=0;endArrow=none;endFill=0;entryX=0;entryY=0.5;entryDx=0;entryDy=0;" parent="WIyWlLk6GJQsqaUBKTNV-1" target="Nd1uS5bIHaKxC9Gl-ecE-73" edge="1">
          <mxGeometry relative="1" as="geometry">
            <mxPoint x="2450" y="620" as="targetPoint" />
            <mxPoint x="2240" y="679" as="sourcePoint" />
          </mxGeometry>
        </mxCell>
        <mxCell id="Nd1uS5bIHaKxC9Gl-ecE-78" style="edgeStyle=orthogonalEdgeStyle;rounded=0;orthogonalLoop=1;jettySize=auto;html=1;entryX=0;entryY=0.5;entryDx=0;entryDy=0;endArrow=none;endFill=0;exitX=1;exitY=0.5;exitDx=0;exitDy=0;" parent="WIyWlLk6GJQsqaUBKTNV-1" source="Nd1uS5bIHaKxC9Gl-ecE-99" target="Nd1uS5bIHaKxC9Gl-ecE-20" edge="1">
          <mxGeometry relative="1" as="geometry">
            <mxPoint x="1050" y="289" as="targetPoint" />
            <mxPoint x="1210" y="280" as="sourcePoint" />
          </mxGeometry>
        </mxCell>
        <mxCell id="Nd1uS5bIHaKxC9Gl-ecE-79" style="edgeStyle=orthogonalEdgeStyle;rounded=0;orthogonalLoop=1;jettySize=auto;html=1;entryX=0;entryY=0.5;entryDx=0;entryDy=0;endArrow=none;endFill=0;exitX=1;exitY=0.5;exitDx=0;exitDy=0;" parent="WIyWlLk6GJQsqaUBKTNV-1" source="Nd1uS5bIHaKxC9Gl-ecE-20" edge="1">
          <mxGeometry relative="1" as="geometry">
            <mxPoint x="1840" y="279" as="targetPoint" />
            <mxPoint x="1620" y="300" as="sourcePoint" />
          </mxGeometry>
        </mxCell>
        <mxCell id="Nd1uS5bIHaKxC9Gl-ecE-80" style="edgeStyle=orthogonalEdgeStyle;rounded=0;orthogonalLoop=1;jettySize=auto;html=1;exitX=1;exitY=0.5;exitDx=0;exitDy=0;entryX=0;entryY=0.5;entryDx=0;entryDy=0;endArrow=none;endFill=0;" parent="WIyWlLk6GJQsqaUBKTNV-1" source="Nd1uS5bIHaKxC9Gl-ecE-1" target="G0vOfmYD0CJJuPIL_CwW-48" edge="1">
          <mxGeometry relative="1" as="geometry">
            <mxPoint x="1050" y="289" as="targetPoint" />
            <mxPoint x="810" y="289" as="sourcePoint" />
          </mxGeometry>
        </mxCell>
        <mxCell id="Nd1uS5bIHaKxC9Gl-ecE-77" style="edgeStyle=orthogonalEdgeStyle;rounded=0;orthogonalLoop=1;jettySize=auto;html=1;exitX=1;exitY=0.5;exitDx=0;exitDy=0;endArrow=none;endFill=0;entryX=0;entryY=0.5;entryDx=0;entryDy=0;" parent="WIyWlLk6GJQsqaUBKTNV-1" source="G0vOfmYD0CJJuPIL_CwW-48" target="Nd1uS5bIHaKxC9Gl-ecE-99" edge="1">
          <mxGeometry relative="1" as="geometry">
            <mxPoint x="1020" y="300" as="targetPoint" />
          </mxGeometry>
        </mxCell>
        <mxCell id="G0vOfmYD0CJJuPIL_CwW-93" value="possède" style="ellipse;whiteSpace=wrap;html=1;" parent="WIyWlLk6GJQsqaUBKTNV-1" vertex="1">
          <mxGeometry x="880" y="250" width="80" height="60" as="geometry" />
        </mxCell>
        <mxCell id="G0vOfmYD0CJJuPIL_CwW-47" value="GameManager" style="swimlane;fontStyle=0;align=center;verticalAlign=top;childLayout=stackLayout;horizontal=1;startSize=26;horizontalStack=0;resizeParent=1;resizeLast=0;collapsible=1;marginBottom=0;rounded=0;shadow=0;strokeWidth=1;" parent="WIyWlLk6GJQsqaUBKTNV-1" vertex="1">
          <mxGeometry x="640" y="240" width="160" height="130" as="geometry">
            <mxRectangle x="550" y="140" width="160" height="26" as="alternateBounds" />
          </mxGeometry>
        </mxCell>
        <mxCell id="G0vOfmYD0CJJuPIL_CwW-48" value="+ isGameOver : bool" style="text;align=left;verticalAlign=top;spacingLeft=4;spacingRight=4;overflow=hidden;rotatable=0;points=[[0,0.5],[1,0.5]];portConstraint=eastwest;" parent="G0vOfmYD0CJJuPIL_CwW-47" vertex="1">
          <mxGeometry y="26" width="160" height="26" as="geometry" />
        </mxCell>
        <mxCell id="G0vOfmYD0CJJuPIL_CwW-49" value="- enemyController : Enemy" style="text;align=left;verticalAlign=top;spacingLeft=4;spacingRight=4;overflow=hidden;rotatable=0;points=[[0,0.5],[1,0.5]];portConstraint=eastwest;rounded=0;shadow=0;html=0;" parent="G0vOfmYD0CJJuPIL_CwW-47" vertex="1">
          <mxGeometry y="52" width="160" height="26" as="geometry" />
        </mxCell>
        <mxCell id="G0vOfmYD0CJJuPIL_CwW-53" value="" style="line;html=1;strokeWidth=1;align=left;verticalAlign=middle;spacingTop=-1;spacingLeft=3;spacingRight=3;rotatable=0;labelPosition=right;points=[];portConstraint=eastwest;" parent="G0vOfmYD0CJJuPIL_CwW-47" vertex="1">
          <mxGeometry y="78" width="160" height="8" as="geometry" />
        </mxCell>
        <mxCell id="G0vOfmYD0CJJuPIL_CwW-54" value="- CheckAndTriggerEagle() : void" style="text;align=left;verticalAlign=top;spacingLeft=4;spacingRight=4;overflow=hidden;rotatable=0;points=[[0,0.5],[1,0.5]];portConstraint=eastwest;whiteSpace=wrap;" parent="G0vOfmYD0CJJuPIL_CwW-47" vertex="1">
          <mxGeometry y="86" width="160" height="44" as="geometry" />
        </mxCell>
        <mxCell id="zkfFHV4jXpPFQw0GAbJ--0" value="SkinData" style="swimlane;fontStyle=0;align=center;verticalAlign=top;childLayout=stackLayout;horizontal=1;startSize=26;horizontalStack=0;resizeParent=1;resizeLast=0;collapsible=1;marginBottom=0;rounded=0;shadow=0;strokeWidth=1;" parent="WIyWlLk6GJQsqaUBKTNV-1" vertex="1">
          <mxGeometry x="1160" y="600" width="160" height="190" as="geometry">
            <mxRectangle x="230" y="140" width="160" height="26" as="alternateBounds" />
          </mxGeometry>
        </mxCell>
        <mxCell id="zkfFHV4jXpPFQw0GAbJ--2" value="+ skin : GameObject" style="text;align=left;verticalAlign=top;spacingLeft=4;spacingRight=4;overflow=hidden;rotatable=0;points=[[0,0.5],[1,0.5]];portConstraint=eastwest;rounded=0;shadow=0;html=0;" parent="zkfFHV4jXpPFQw0GAbJ--0" vertex="1">
          <mxGeometry y="26" width="160" height="26" as="geometry" />
        </mxCell>
        <mxCell id="zkfFHV4jXpPFQw0GAbJ--1" value="+ owned : int" style="text;align=left;verticalAlign=top;spacingLeft=4;spacingRight=4;overflow=hidden;rotatable=0;points=[[0,0.5],[1,0.5]];portConstraint=eastwest;" parent="zkfFHV4jXpPFQw0GAbJ--0" vertex="1">
          <mxGeometry y="52" width="160" height="26" as="geometry" />
        </mxCell>
        <mxCell id="Nd1uS5bIHaKxC9Gl-ecE-142" value="+ price : int" style="text;align=left;verticalAlign=top;spacingLeft=4;spacingRight=4;overflow=hidden;rotatable=0;points=[[0,0.5],[1,0.5]];portConstraint=eastwest;" parent="zkfFHV4jXpPFQw0GAbJ--0" vertex="1">
          <mxGeometry y="78" width="160" height="26" as="geometry" />
        </mxCell>
        <mxCell id="zkfFHV4jXpPFQw0GAbJ--4" value="" style="line;html=1;strokeWidth=1;align=left;verticalAlign=middle;spacingTop=-1;spacingLeft=3;spacingRight=3;rotatable=0;labelPosition=right;points=[];portConstraint=eastwest;" parent="zkfFHV4jXpPFQw0GAbJ--0" vertex="1">
          <mxGeometry y="104" width="160" height="8" as="geometry" />
        </mxCell>
        <mxCell id="Nd1uS5bIHaKxC9Gl-ecE-143" value="- LoadSkin() : void" style="text;align=left;verticalAlign=top;spacingLeft=4;spacingRight=4;overflow=hidden;rotatable=0;points=[[0,0.5],[1,0.5]];portConstraint=eastwest;" parent="zkfFHV4jXpPFQw0GAbJ--0" vertex="1">
          <mxGeometry y="112" width="160" height="26" as="geometry" />
        </mxCell>
        <mxCell id="Nd1uS5bIHaKxC9Gl-ecE-144" value="~ Purchase() : void" style="text;align=left;verticalAlign=top;spacingLeft=4;spacingRight=4;overflow=hidden;rotatable=0;points=[[0,0.5],[1,0.5]];portConstraint=eastwest;" parent="zkfFHV4jXpPFQw0GAbJ--0" vertex="1">
          <mxGeometry y="138" width="160" height="26" as="geometry" />
        </mxCell>
        <mxCell id="Nd1uS5bIHaKxC9Gl-ecE-146" value="- SaveSkin() : void" style="text;align=left;verticalAlign=top;spacingLeft=4;spacingRight=4;overflow=hidden;rotatable=0;points=[[0,0.5],[1,0.5]];portConstraint=eastwest;" parent="zkfFHV4jXpPFQw0GAbJ--0" vertex="1">
          <mxGeometry y="164" width="160" height="26" as="geometry" />
        </mxCell>
        <mxCell id="Nd1uS5bIHaKxC9Gl-ecE-0" value="Eagle" style="swimlane;fontStyle=0;align=center;verticalAlign=top;childLayout=stackLayout;horizontal=1;startSize=26;horizontalStack=0;resizeParent=1;resizeLast=0;collapsible=1;marginBottom=0;rounded=0;shadow=0;strokeWidth=1;" parent="WIyWlLk6GJQsqaUBKTNV-1" vertex="1">
          <mxGeometry x="241" y="240" width="159" height="176" as="geometry">
            <mxRectangle x="550" y="140" width="160" height="26" as="alternateBounds" />
          </mxGeometry>
        </mxCell>
        <mxCell id="Nd1uS5bIHaKxC9Gl-ecE-1" value="- isActive : bool" style="text;align=left;verticalAlign=top;spacingLeft=4;spacingRight=4;overflow=hidden;rotatable=0;points=[[0,0.5],[1,0.5]];portConstraint=eastwest;" parent="Nd1uS5bIHaKxC9Gl-ecE-0" vertex="1">
          <mxGeometry y="26" width="159" height="26" as="geometry" />
        </mxCell>
        <mxCell id="Nd1uS5bIHaKxC9Gl-ecE-111" value="- lastPlayerPosition : Vector3" style="text;align=left;verticalAlign=top;spacingLeft=4;spacingRight=4;overflow=hidden;rotatable=0;points=[[0,0.5],[1,0.5]];portConstraint=eastwest;whiteSpace=wrap;" parent="Nd1uS5bIHaKxC9Gl-ecE-0" vertex="1">
          <mxGeometry y="52" width="159" height="38" as="geometry" />
        </mxCell>
        <mxCell id="Nd1uS5bIHaKxC9Gl-ecE-2" value="- speed : float" style="text;align=left;verticalAlign=top;spacingLeft=4;spacingRight=4;overflow=hidden;rotatable=0;points=[[0,0.5],[1,0.5]];portConstraint=eastwest;rounded=0;shadow=0;html=0;" parent="Nd1uS5bIHaKxC9Gl-ecE-0" vertex="1">
          <mxGeometry y="90" width="159" height="26" as="geometry" />
        </mxCell>
        <mxCell id="Nd1uS5bIHaKxC9Gl-ecE-3" value="" style="line;html=1;strokeWidth=1;align=left;verticalAlign=middle;spacingTop=-1;spacingLeft=3;spacingRight=3;rotatable=0;labelPosition=right;points=[];portConstraint=eastwest;" parent="Nd1uS5bIHaKxC9Gl-ecE-0" vertex="1">
          <mxGeometry y="116" width="159" height="8" as="geometry" />
        </mxCell>
        <mxCell id="Nd1uS5bIHaKxC9Gl-ecE-109" value="+ ActivateEnemy() : void" style="text;align=left;verticalAlign=top;spacingLeft=4;spacingRight=4;overflow=hidden;rotatable=0;points=[[0,0.5],[1,0.5]];portConstraint=eastwest;" parent="Nd1uS5bIHaKxC9Gl-ecE-0" vertex="1">
          <mxGeometry y="124" width="159" height="26" as="geometry" />
        </mxCell>
        <mxCell id="Nd1uS5bIHaKxC9Gl-ecE-110" value="+ DeactivateEnemy() : void" style="text;align=left;verticalAlign=top;spacingLeft=4;spacingRight=4;overflow=hidden;rotatable=0;points=[[0,0.5],[1,0.5]];portConstraint=eastwest;" parent="Nd1uS5bIHaKxC9Gl-ecE-0" vertex="1">
          <mxGeometry y="150" width="159" height="26" as="geometry" />
        </mxCell>
        <mxCell id="Nd1uS5bIHaKxC9Gl-ecE-17" value="pilote" style="ellipse;whiteSpace=wrap;html=1;" parent="WIyWlLk6GJQsqaUBKTNV-1" vertex="1">
          <mxGeometry x="480" y="250" width="80" height="60" as="geometry" />
        </mxCell>
        <mxCell id="Nd1uS5bIHaKxC9Gl-ecE-18" value="a" style="ellipse;whiteSpace=wrap;html=1;" parent="WIyWlLk6GJQsqaUBKTNV-1" vertex="1">
          <mxGeometry x="1280" y="250" width="80" height="60" as="geometry" />
        </mxCell>
        <mxCell id="Nd1uS5bIHaKxC9Gl-ecE-19" value="TerrainGenerator" style="swimlane;fontStyle=0;align=center;verticalAlign=top;childLayout=stackLayout;horizontal=1;startSize=26;horizontalStack=0;resizeParent=1;resizeLast=0;collapsible=1;marginBottom=0;rounded=0;shadow=0;strokeWidth=1;" parent="WIyWlLk6GJQsqaUBKTNV-1" vertex="1">
          <mxGeometry x="1440" y="240" width="160" height="262" as="geometry">
            <mxRectangle x="340" y="380" width="170" height="26" as="alternateBounds" />
          </mxGeometry>
        </mxCell>
        <mxCell id="Nd1uS5bIHaKxC9Gl-ecE-20" value="+ currentPosition : Vector3" style="text;align=left;verticalAlign=top;spacingLeft=4;spacingRight=4;overflow=hidden;rotatable=0;points=[[0,0.5],[1,0.5]];portConstraint=eastwest;" parent="Nd1uS5bIHaKxC9Gl-ecE-19" vertex="1">
          <mxGeometry y="26" width="160" height="26" as="geometry" />
        </mxCell>
        <mxCell id="Nd1uS5bIHaKxC9Gl-ecE-112" value="- currentTerrains : List&lt;GameObject&gt;" style="text;align=left;verticalAlign=top;spacingLeft=4;spacingRight=4;overflow=hidden;rotatable=0;points=[[0,0.5],[1,0.5]];portConstraint=eastwest;whiteSpace=wrap;" parent="Nd1uS5bIHaKxC9Gl-ecE-19" vertex="1">
          <mxGeometry y="52" width="160" height="38" as="geometry" />
        </mxCell>
        <mxCell id="Nd1uS5bIHaKxC9Gl-ecE-116" value="- playerStartPos : int" style="text;align=left;verticalAlign=top;spacingLeft=4;spacingRight=4;overflow=hidden;rotatable=0;points=[[0,0.5],[1,0.5]];portConstraint=eastwest;whiteSpace=wrap;" parent="Nd1uS5bIHaKxC9Gl-ecE-19" vertex="1">
          <mxGeometry y="90" width="160" height="30" as="geometry" />
        </mxCell>
        <mxCell id="Nd1uS5bIHaKxC9Gl-ecE-117" value="- maxTerrainCount : int" style="text;align=left;verticalAlign=top;spacingLeft=4;spacingRight=4;overflow=hidden;rotatable=0;points=[[0,0.5],[1,0.5]];portConstraint=eastwest;whiteSpace=wrap;" parent="Nd1uS5bIHaKxC9Gl-ecE-19" vertex="1">
          <mxGeometry y="120" width="160" height="30" as="geometry" />
        </mxCell>
        <mxCell id="Nd1uS5bIHaKxC9Gl-ecE-21" value="" style="line;html=1;strokeWidth=1;align=left;verticalAlign=middle;spacingTop=-1;spacingLeft=3;spacingRight=3;rotatable=0;labelPosition=right;points=[];portConstraint=eastwest;" parent="Nd1uS5bIHaKxC9Gl-ecE-19" vertex="1">
          <mxGeometry y="150" width="160" height="20" as="geometry" />
        </mxCell>
        <mxCell id="Nd1uS5bIHaKxC9Gl-ecE-115" value="- SpawnStartingTerrains() : void" style="text;align=left;verticalAlign=top;spacingLeft=4;spacingRight=4;overflow=hidden;rotatable=0;points=[[0,0.5],[1,0.5]];portConstraint=eastwest;whiteSpace=wrap;" parent="Nd1uS5bIHaKxC9Gl-ecE-19" vertex="1">
          <mxGeometry y="170" width="160" height="40" as="geometry" />
        </mxCell>
        <mxCell id="Nd1uS5bIHaKxC9Gl-ecE-118" value="- SpawnTerrain() : void" style="text;align=left;verticalAlign=top;spacingLeft=4;spacingRight=4;overflow=hidden;rotatable=0;points=[[0,0.5],[1,0.5]];portConstraint=eastwest;" parent="Nd1uS5bIHaKxC9Gl-ecE-19" vertex="1">
          <mxGeometry y="210" width="160" height="26" as="geometry" />
        </mxCell>
        <mxCell id="Nd1uS5bIHaKxC9Gl-ecE-119" value="- ChoosePrefab() : void" style="text;align=left;verticalAlign=top;spacingLeft=4;spacingRight=4;overflow=hidden;rotatable=0;points=[[0,0.5],[1,0.5]];portConstraint=eastwest;" parent="Nd1uS5bIHaKxC9Gl-ecE-19" vertex="1">
          <mxGeometry y="236" width="160" height="26" as="geometry" />
        </mxCell>
        <mxCell id="Nd1uS5bIHaKxC9Gl-ecE-23" value="a" style="ellipse;whiteSpace=wrap;html=1;" parent="WIyWlLk6GJQsqaUBKTNV-1" vertex="1">
          <mxGeometry x="1680" y="250" width="80" height="60" as="geometry" />
        </mxCell>
        <mxCell id="Nd1uS5bIHaKxC9Gl-ecE-28" value="a" style="ellipse;whiteSpace=wrap;html=1;" parent="WIyWlLk6GJQsqaUBKTNV-1" vertex="1">
          <mxGeometry x="1080" y="489" width="80" height="60" as="geometry" />
        </mxCell>
        <mxCell id="Nd1uS5bIHaKxC9Gl-ecE-29" value="Terrain" style="swimlane;fontStyle=0;align=center;verticalAlign=top;childLayout=stackLayout;horizontal=1;startSize=26;horizontalStack=0;resizeParent=1;resizeLast=0;collapsible=1;marginBottom=0;rounded=0;shadow=0;strokeWidth=1;" parent="WIyWlLk6GJQsqaUBKTNV-1" vertex="1">
          <mxGeometry x="1840" y="240" width="160" height="110" as="geometry">
            <mxRectangle x="340" y="380" width="170" height="26" as="alternateBounds" />
          </mxGeometry>
        </mxCell>
        <mxCell id="Nd1uS5bIHaKxC9Gl-ecE-51" value="GrassObjectSpawner" style="swimlane;fontStyle=0;align=center;verticalAlign=top;childLayout=stackLayout;horizontal=1;startSize=26;horizontalStack=0;resizeParent=1;resizeLast=0;collapsible=1;marginBottom=0;rounded=0;shadow=0;strokeWidth=1;" parent="WIyWlLk6GJQsqaUBKTNV-1" vertex="1">
          <mxGeometry x="1600" y="640" width="160" height="54" as="geometry">
            <mxRectangle x="340" y="380" width="170" height="26" as="alternateBounds" />
          </mxGeometry>
        </mxCell>
        <mxCell id="Nd1uS5bIHaKxC9Gl-ecE-53" value="" style="line;html=1;strokeWidth=1;align=left;verticalAlign=middle;spacingTop=-1;spacingLeft=3;spacingRight=3;rotatable=0;labelPosition=right;points=[];portConstraint=eastwest;" parent="Nd1uS5bIHaKxC9Gl-ecE-51" vertex="1">
          <mxGeometry y="26" width="160" height="28" as="geometry" />
        </mxCell>
        <mxCell id="Nd1uS5bIHaKxC9Gl-ecE-59" value="CoinSpawner" style="swimlane;fontStyle=0;align=center;verticalAlign=top;childLayout=stackLayout;horizontal=1;startSize=26;horizontalStack=0;resizeParent=1;resizeLast=0;collapsible=1;marginBottom=0;rounded=0;shadow=0;strokeWidth=1;" parent="WIyWlLk6GJQsqaUBKTNV-1" vertex="1">
          <mxGeometry x="1840" y="640" width="160" height="68" as="geometry">
            <mxRectangle x="340" y="380" width="170" height="26" as="alternateBounds" />
          </mxGeometry>
        </mxCell>
        <mxCell id="Nd1uS5bIHaKxC9Gl-ecE-60" value="- coins : GameObject" style="text;align=left;verticalAlign=top;spacingLeft=4;spacingRight=4;overflow=hidden;rotatable=0;points=[[0,0.5],[1,0.5]];portConstraint=eastwest;" parent="Nd1uS5bIHaKxC9Gl-ecE-59" vertex="1">
          <mxGeometry y="26" width="160" height="14" as="geometry" />
        </mxCell>
        <mxCell id="Nd1uS5bIHaKxC9Gl-ecE-61" value="" style="line;html=1;strokeWidth=1;align=left;verticalAlign=middle;spacingTop=-1;spacingLeft=3;spacingRight=3;rotatable=0;labelPosition=right;points=[];portConstraint=eastwest;" parent="Nd1uS5bIHaKxC9Gl-ecE-59" vertex="1">
          <mxGeometry y="40" width="160" height="28" as="geometry" />
        </mxCell>
        <mxCell id="Nd1uS5bIHaKxC9Gl-ecE-63" value="a" style="ellipse;whiteSpace=wrap;html=1;" parent="WIyWlLk6GJQsqaUBKTNV-1" vertex="1">
          <mxGeometry x="1880" y="490" width="80" height="60" as="geometry" />
        </mxCell>
        <mxCell id="Nd1uS5bIHaKxC9Gl-ecE-96" style="rounded=0;orthogonalLoop=1;jettySize=auto;html=1;exitX=0.25;exitY=0;exitDx=0;exitDy=0;entryX=0.5;entryY=1;entryDx=0;entryDy=0;dashed=1;" parent="WIyWlLk6GJQsqaUBKTNV-1" target="Nd1uS5bIHaKxC9Gl-ecE-51" edge="1">
          <mxGeometry relative="1" as="geometry">
            <mxPoint x="1680.3199999999997" y="724.45" as="targetPoint" />
            <mxPoint x="1760" y="840" as="sourcePoint" />
          </mxGeometry>
        </mxCell>
        <mxCell id="Nd1uS5bIHaKxC9Gl-ecE-72" value="DifficultyController" style="swimlane;fontStyle=0;align=center;verticalAlign=top;childLayout=stackLayout;horizontal=1;startSize=26;horizontalStack=0;resizeParent=1;resizeLast=0;collapsible=1;marginBottom=0;rounded=0;shadow=0;strokeWidth=1;" parent="WIyWlLk6GJQsqaUBKTNV-1" vertex="1">
          <mxGeometry x="2481" y="640" width="160" height="190" as="geometry">
            <mxRectangle x="340" y="380" width="170" height="26" as="alternateBounds" />
          </mxGeometry>
        </mxCell>
        <mxCell id="Nd1uS5bIHaKxC9Gl-ecE-73" value="- difficultyKey : string" style="text;align=left;verticalAlign=top;spacingLeft=4;spacingRight=4;overflow=hidden;rotatable=0;points=[[0,0.5],[1,0.5]];portConstraint=eastwest;" parent="Nd1uS5bIHaKxC9Gl-ecE-72" vertex="1">
          <mxGeometry y="26" width="160" height="26" as="geometry" />
        </mxCell>
        <mxCell id="Nd1uS5bIHaKxC9Gl-ecE-138" value="- difficultyLevels : string[]" style="text;align=left;verticalAlign=top;spacingLeft=4;spacingRight=4;overflow=hidden;rotatable=0;points=[[0,0.5],[1,0.5]];portConstraint=eastwest;" parent="Nd1uS5bIHaKxC9Gl-ecE-72" vertex="1">
          <mxGeometry y="52" width="160" height="26" as="geometry" />
        </mxCell>
        <mxCell id="Nd1uS5bIHaKxC9Gl-ecE-139" value="- currentDifficultyIndex : int" style="text;align=left;verticalAlign=top;spacingLeft=4;spacingRight=4;overflow=hidden;rotatable=0;points=[[0,0.5],[1,0.5]];portConstraint=eastwest;" parent="Nd1uS5bIHaKxC9Gl-ecE-72" vertex="1">
          <mxGeometry y="78" width="160" height="26" as="geometry" />
        </mxCell>
        <mxCell id="Nd1uS5bIHaKxC9Gl-ecE-74" value="" style="line;html=1;strokeWidth=1;align=left;verticalAlign=middle;spacingTop=-1;spacingLeft=3;spacingRight=3;rotatable=0;labelPosition=right;points=[];portConstraint=eastwest;" parent="Nd1uS5bIHaKxC9Gl-ecE-72" vertex="1">
          <mxGeometry y="104" width="160" height="16" as="geometry" />
        </mxCell>
        <mxCell id="Nd1uS5bIHaKxC9Gl-ecE-140" value="- SaveDifficulty() : void" style="text;align=left;verticalAlign=top;spacingLeft=4;spacingRight=4;overflow=hidden;rotatable=0;points=[[0,0.5],[1,0.5]];portConstraint=eastwest;" parent="Nd1uS5bIHaKxC9Gl-ecE-72" vertex="1">
          <mxGeometry y="120" width="160" height="26" as="geometry" />
        </mxCell>
        <mxCell id="Nd1uS5bIHaKxC9Gl-ecE-141" value="- UpdateDifficultyText() : void" style="text;align=left;verticalAlign=top;spacingLeft=4;spacingRight=4;overflow=hidden;rotatable=0;points=[[0,0.5],[1,0.5]];portConstraint=eastwest;whiteSpace=wrap;" parent="Nd1uS5bIHaKxC9Gl-ecE-72" vertex="1">
          <mxGeometry y="146" width="160" height="32" as="geometry" />
        </mxCell>
        <mxCell id="Nd1uS5bIHaKxC9Gl-ecE-76" value="a" style="ellipse;whiteSpace=wrap;html=1;" parent="WIyWlLk6GJQsqaUBKTNV-1" vertex="1">
          <mxGeometry x="2320" y="650" width="80" height="60" as="geometry" />
        </mxCell>
        <mxCell id="Nd1uS5bIHaKxC9Gl-ecE-84" value="1..1" style="text;html=1;strokeColor=none;fillColor=none;align=center;verticalAlign=middle;whiteSpace=wrap;rounded=0;" parent="WIyWlLk6GJQsqaUBKTNV-1" vertex="1">
          <mxGeometry x="579" y="248" width="60" height="30" as="geometry" />
        </mxCell>
        <mxCell id="Nd1uS5bIHaKxC9Gl-ecE-85" value="1..1" style="text;html=1;strokeColor=none;fillColor=none;align=center;verticalAlign=middle;whiteSpace=wrap;rounded=0;" parent="WIyWlLk6GJQsqaUBKTNV-1" vertex="1">
          <mxGeometry x="400" y="248" width="60" height="30" as="geometry" />
        </mxCell>
        <mxCell id="Nd1uS5bIHaKxC9Gl-ecE-86" value="" style="group" parent="WIyWlLk6GJQsqaUBKTNV-1" vertex="1" connectable="0">
          <mxGeometry x="801" y="248" width="239" height="30" as="geometry" />
        </mxCell>
        <mxCell id="G0vOfmYD0CJJuPIL_CwW-114" value="1..1" style="text;html=1;strokeColor=none;fillColor=none;align=center;verticalAlign=middle;whiteSpace=wrap;rounded=0;" parent="Nd1uS5bIHaKxC9Gl-ecE-86" vertex="1">
          <mxGeometry x="179" width="60" height="30" as="geometry" />
        </mxCell>
        <mxCell id="Nd1uS5bIHaKxC9Gl-ecE-83" value="1..1" style="text;html=1;strokeColor=none;fillColor=none;align=center;verticalAlign=middle;whiteSpace=wrap;rounded=0;" parent="Nd1uS5bIHaKxC9Gl-ecE-86" vertex="1">
          <mxGeometry width="60" height="30" as="geometry" />
        </mxCell>
        <mxCell id="Nd1uS5bIHaKxC9Gl-ecE-90" value="" style="group" parent="WIyWlLk6GJQsqaUBKTNV-1" vertex="1" connectable="0">
          <mxGeometry x="1201" y="248" width="239" height="30" as="geometry" />
        </mxCell>
        <mxCell id="Nd1uS5bIHaKxC9Gl-ecE-91" value="1..1" style="text;html=1;strokeColor=none;fillColor=none;align=center;verticalAlign=middle;whiteSpace=wrap;rounded=0;" parent="Nd1uS5bIHaKxC9Gl-ecE-90" vertex="1">
          <mxGeometry x="179" width="60" height="30" as="geometry" />
        </mxCell>
        <mxCell id="Nd1uS5bIHaKxC9Gl-ecE-92" value="1..1" style="text;html=1;strokeColor=none;fillColor=none;align=center;verticalAlign=middle;whiteSpace=wrap;rounded=0;" parent="Nd1uS5bIHaKxC9Gl-ecE-90" vertex="1">
          <mxGeometry width="60" height="30" as="geometry" />
        </mxCell>
        <mxCell id="Nd1uS5bIHaKxC9Gl-ecE-97" style="rounded=0;orthogonalLoop=1;jettySize=auto;html=1;exitX=0.75;exitY=0;exitDx=0;exitDy=0;entryX=0.5;entryY=1;entryDx=0;entryDy=0;dashed=1;" parent="WIyWlLk6GJQsqaUBKTNV-1" target="Nd1uS5bIHaKxC9Gl-ecE-59" edge="1">
          <mxGeometry relative="1" as="geometry">
            <mxPoint x="1920.3199999999997" y="737.9699999999998" as="targetPoint" />
            <mxPoint x="1840" y="840" as="sourcePoint" />
          </mxGeometry>
        </mxCell>
        <mxCell id="Nd1uS5bIHaKxC9Gl-ecE-98" value="Player (Singleton)" style="swimlane;fontStyle=0;align=center;verticalAlign=top;childLayout=stackLayout;horizontal=1;startSize=26;horizontalStack=0;resizeParent=1;resizeLast=0;collapsible=1;marginBottom=0;rounded=0;shadow=0;strokeWidth=1;" parent="WIyWlLk6GJQsqaUBKTNV-1" vertex="1">
          <mxGeometry x="1040" y="240" width="160" height="170" as="geometry">
            <mxRectangle x="550" y="140" width="160" height="26" as="alternateBounds" />
          </mxGeometry>
        </mxCell>
        <mxCell id="Nd1uS5bIHaKxC9Gl-ecE-99" value="+ Score : float" style="text;align=left;verticalAlign=top;spacingLeft=4;spacingRight=4;overflow=hidden;rotatable=0;points=[[0,0.5],[1,0.5]];portConstraint=eastwest;" parent="Nd1uS5bIHaKxC9Gl-ecE-98" vertex="1">
          <mxGeometry y="26" width="160" height="26" as="geometry" />
        </mxCell>
        <mxCell id="Nd1uS5bIHaKxC9Gl-ecE-100" value="+ currentSkin : GameObject" style="text;align=left;verticalAlign=top;spacingLeft=4;spacingRight=4;overflow=hidden;rotatable=0;points=[[0,0.5],[1,0.5]];portConstraint=eastwest;rounded=0;shadow=0;html=0;" parent="Nd1uS5bIHaKxC9Gl-ecE-98" vertex="1">
          <mxGeometry y="52" width="160" height="26" as="geometry" />
        </mxCell>
        <mxCell id="Nd1uS5bIHaKxC9Gl-ecE-102" value="" style="line;html=1;strokeWidth=1;align=left;verticalAlign=middle;spacingTop=-1;spacingLeft=3;spacingRight=3;rotatable=0;labelPosition=right;points=[];portConstraint=eastwest;" parent="Nd1uS5bIHaKxC9Gl-ecE-98" vertex="1">
          <mxGeometry y="78" width="160" height="8" as="geometry" />
        </mxCell>
        <mxCell id="Nd1uS5bIHaKxC9Gl-ecE-103" value="- MoveCharacter() : void" style="text;align=left;verticalAlign=top;spacingLeft=4;spacingRight=4;overflow=hidden;rotatable=0;points=[[0,0.5],[1,0.5]];portConstraint=eastwest;" parent="Nd1uS5bIHaKxC9Gl-ecE-98" vertex="1">
          <mxGeometry y="86" width="160" height="26" as="geometry" />
        </mxCell>
        <mxCell id="Nd1uS5bIHaKxC9Gl-ecE-104" value="- UpdateScore() : void" style="text;align=left;verticalAlign=top;spacingLeft=4;spacingRight=4;overflow=hidden;rotatable=0;points=[[0,0.5],[1,0.5]];portConstraint=eastwest;" parent="Nd1uS5bIHaKxC9Gl-ecE-98" vertex="1">
          <mxGeometry y="112" width="160" height="26" as="geometry" />
        </mxCell>
        <mxCell id="Nd1uS5bIHaKxC9Gl-ecE-105" value="- ApplySkin() : void" style="text;align=left;verticalAlign=top;spacingLeft=4;spacingRight=4;overflow=hidden;rotatable=0;points=[[0,0.5],[1,0.5]];portConstraint=eastwest;" parent="Nd1uS5bIHaKxC9Gl-ecE-98" vertex="1">
          <mxGeometry y="138" width="160" height="26" as="geometry" />
        </mxCell>
        <mxCell id="Nd1uS5bIHaKxC9Gl-ecE-120" value="PREFAB" style="text;html=1;align=center;verticalAlign=middle;resizable=0;points=[];autosize=1;strokeColor=none;fillColor=none;fontSize=23;" parent="WIyWlLk6GJQsqaUBKTNV-1" vertex="1">
          <mxGeometry x="1865" y="290" width="110" height="40" as="geometry" />
        </mxCell>
        <mxCell id="Nd1uS5bIHaKxC9Gl-ecE-122" value="ObjectSpawner" style="swimlane;fontStyle=0;align=center;verticalAlign=top;childLayout=stackLayout;horizontal=1;startSize=26;horizontalStack=0;resizeParent=1;resizeLast=0;collapsible=1;marginBottom=0;rounded=0;shadow=0;strokeWidth=1;" parent="WIyWlLk6GJQsqaUBKTNV-1" vertex="1">
          <mxGeometry x="1720" y="840" width="160" height="216" as="geometry">
            <mxRectangle x="550" y="140" width="160" height="26" as="alternateBounds" />
          </mxGeometry>
        </mxCell>
        <mxCell id="Nd1uS5bIHaKxC9Gl-ecE-123" value="~ spawnPos : Vector3" style="text;align=left;verticalAlign=top;spacingLeft=4;spacingRight=4;overflow=hidden;rotatable=0;points=[[0,0.5],[1,0.5]];portConstraint=eastwest;" parent="Nd1uS5bIHaKxC9Gl-ecE-122" vertex="1">
          <mxGeometry y="26" width="160" height="26" as="geometry" />
        </mxCell>
        <mxCell id="Nd1uS5bIHaKxC9Gl-ecE-124" value="~ spawnedElementCount : int" style="text;align=left;verticalAlign=top;spacingLeft=4;spacingRight=4;overflow=hidden;rotatable=0;points=[[0,0.5],[1,0.5]];portConstraint=eastwest;rounded=0;shadow=0;html=0;whiteSpace=wrap;" parent="Nd1uS5bIHaKxC9Gl-ecE-122" vertex="1">
          <mxGeometry y="52" width="160" height="38" as="geometry" />
        </mxCell>
        <mxCell id="Nd1uS5bIHaKxC9Gl-ecE-129" value="~ elements : List&lt;GameObject&gt;" style="text;align=left;verticalAlign=top;spacingLeft=4;spacingRight=4;overflow=hidden;rotatable=0;points=[[0,0.5],[1,0.5]];portConstraint=eastwest;rounded=0;shadow=0;html=0;whiteSpace=wrap;" parent="Nd1uS5bIHaKxC9Gl-ecE-122" vertex="1">
          <mxGeometry y="90" width="160" height="40" as="geometry" />
        </mxCell>
        <mxCell id="Nd1uS5bIHaKxC9Gl-ecE-125" value="" style="line;html=1;strokeWidth=1;align=left;verticalAlign=middle;spacingTop=-1;spacingLeft=3;spacingRight=3;rotatable=0;labelPosition=right;points=[];portConstraint=eastwest;" parent="Nd1uS5bIHaKxC9Gl-ecE-122" vertex="1">
          <mxGeometry y="130" width="160" height="8" as="geometry" />
        </mxCell>
        <mxCell id="Nd1uS5bIHaKxC9Gl-ecE-126" value="~ Launch() : void" style="text;align=left;verticalAlign=top;spacingLeft=4;spacingRight=4;overflow=hidden;rotatable=0;points=[[0,0.5],[1,0.5]];portConstraint=eastwest;" parent="Nd1uS5bIHaKxC9Gl-ecE-122" vertex="1">
          <mxGeometry y="138" width="160" height="26" as="geometry" />
        </mxCell>
        <mxCell id="Nd1uS5bIHaKxC9Gl-ecE-127" value="~ SpawnObjects() : void" style="text;align=left;verticalAlign=top;spacingLeft=4;spacingRight=4;overflow=hidden;rotatable=0;points=[[0,0.5],[1,0.5]];portConstraint=eastwest;" parent="Nd1uS5bIHaKxC9Gl-ecE-122" vertex="1">
          <mxGeometry y="164" width="160" height="26" as="geometry" />
        </mxCell>
        <mxCell id="Nd1uS5bIHaKxC9Gl-ecE-128" value="- DefineXAxis() : void" style="text;align=left;verticalAlign=top;spacingLeft=4;spacingRight=4;overflow=hidden;rotatable=0;points=[[0,0.5],[1,0.5]];portConstraint=eastwest;" parent="Nd1uS5bIHaKxC9Gl-ecE-122" vertex="1">
          <mxGeometry y="190" width="160" height="26" as="geometry" />
        </mxCell>
        <mxCell id="Nd1uS5bIHaKxC9Gl-ecE-130" value="MovingObjectSpawner" style="swimlane;fontStyle=0;align=center;verticalAlign=top;childLayout=stackLayout;horizontal=1;startSize=26;horizontalStack=0;resizeParent=1;resizeLast=0;collapsible=1;marginBottom=0;rounded=0;shadow=0;strokeWidth=1;" parent="WIyWlLk6GJQsqaUBKTNV-1" vertex="1">
          <mxGeometry x="2080" y="640" width="160" height="190" as="geometry">
            <mxRectangle x="550" y="140" width="160" height="26" as="alternateBounds" />
          </mxGeometry>
        </mxCell>
        <mxCell id="Nd1uS5bIHaKxC9Gl-ecE-131" value="- spawnPosition : Transform" style="text;align=left;verticalAlign=top;spacingLeft=4;spacingRight=4;overflow=hidden;rotatable=0;points=[[0,0.5],[1,0.5]];portConstraint=eastwest;" parent="Nd1uS5bIHaKxC9Gl-ecE-130" vertex="1">
          <mxGeometry y="26" width="160" height="26" as="geometry" />
        </mxCell>
        <mxCell id="Nd1uS5bIHaKxC9Gl-ecE-132" value="- isRightSide : bool" style="text;align=left;verticalAlign=top;spacingLeft=4;spacingRight=4;overflow=hidden;rotatable=0;points=[[0,0.5],[1,0.5]];portConstraint=eastwest;rounded=0;shadow=0;html=0;whiteSpace=wrap;" parent="Nd1uS5bIHaKxC9Gl-ecE-130" vertex="1">
          <mxGeometry y="52" width="160" height="28" as="geometry" />
        </mxCell>
        <mxCell id="Nd1uS5bIHaKxC9Gl-ecE-133" value="- movingObject : GameObject" style="text;align=left;verticalAlign=top;spacingLeft=4;spacingRight=4;overflow=hidden;rotatable=0;points=[[0,0.5],[1,0.5]];portConstraint=eastwest;rounded=0;shadow=0;html=0;whiteSpace=wrap;" parent="Nd1uS5bIHaKxC9Gl-ecE-130" vertex="1">
          <mxGeometry y="80" width="160" height="40" as="geometry" />
        </mxCell>
        <mxCell id="Nd1uS5bIHaKxC9Gl-ecE-134" value="" style="line;html=1;strokeWidth=1;align=left;verticalAlign=middle;spacingTop=-1;spacingLeft=3;spacingRight=3;rotatable=0;labelPosition=right;points=[];portConstraint=eastwest;" parent="Nd1uS5bIHaKxC9Gl-ecE-130" vertex="1">
          <mxGeometry y="120" width="160" height="8" as="geometry" />
        </mxCell>
        <mxCell id="Nd1uS5bIHaKxC9Gl-ecE-135" value="- SpawnObject() : void" style="text;align=left;verticalAlign=top;spacingLeft=4;spacingRight=4;overflow=hidden;rotatable=0;points=[[0,0.5],[1,0.5]];portConstraint=eastwest;" parent="Nd1uS5bIHaKxC9Gl-ecE-130" vertex="1">
          <mxGeometry y="128" width="160" height="26" as="geometry" />
        </mxCell>
        <mxCell id="Nd1uS5bIHaKxC9Gl-ecE-136" value="- DestroyOutOfBounds() : void" style="text;align=left;verticalAlign=top;spacingLeft=4;spacingRight=4;overflow=hidden;rotatable=0;points=[[0,0.5],[1,0.5]];portConstraint=eastwest;whiteSpace=wrap;" parent="Nd1uS5bIHaKxC9Gl-ecE-130" vertex="1">
          <mxGeometry y="154" width="160" height="36" as="geometry" />
        </mxCell>
        <mxCell id="Nd1uS5bIHaKxC9Gl-ecE-147" value="CoinManager" style="swimlane;fontStyle=0;align=center;verticalAlign=top;childLayout=stackLayout;horizontal=1;startSize=26;horizontalStack=0;resizeParent=1;resizeLast=0;collapsible=1;marginBottom=0;rounded=0;shadow=0;strokeWidth=1;" parent="WIyWlLk6GJQsqaUBKTNV-1" vertex="1">
          <mxGeometry x="1041" y="-200" width="160" height="170" as="geometry">
            <mxRectangle x="550" y="140" width="160" height="26" as="alternateBounds" />
          </mxGeometry>
        </mxCell>
        <mxCell id="Nd1uS5bIHaKxC9Gl-ecE-148" value="- coinScore : int" style="text;align=left;verticalAlign=top;spacingLeft=4;spacingRight=4;overflow=hidden;rotatable=0;points=[[0,0.5],[1,0.5]];portConstraint=eastwest;" parent="Nd1uS5bIHaKxC9Gl-ecE-147" vertex="1">
          <mxGeometry y="26" width="160" height="26" as="geometry" />
        </mxCell>
        <mxCell id="Nd1uS5bIHaKxC9Gl-ecE-149" value="- coinScoreKey : string" style="text;align=left;verticalAlign=top;spacingLeft=4;spacingRight=4;overflow=hidden;rotatable=0;points=[[0,0.5],[1,0.5]];portConstraint=eastwest;rounded=0;shadow=0;html=0;" parent="Nd1uS5bIHaKxC9Gl-ecE-147" vertex="1">
          <mxGeometry y="52" width="160" height="26" as="geometry" />
        </mxCell>
        <mxCell id="Nd1uS5bIHaKxC9Gl-ecE-150" value="" style="line;html=1;strokeWidth=1;align=left;verticalAlign=middle;spacingTop=-1;spacingLeft=3;spacingRight=3;rotatable=0;labelPosition=right;points=[];portConstraint=eastwest;" parent="Nd1uS5bIHaKxC9Gl-ecE-147" vertex="1">
          <mxGeometry y="78" width="160" height="8" as="geometry" />
        </mxCell>
        <mxCell id="Nd1uS5bIHaKxC9Gl-ecE-152" value="~ CollectCoin() : void" style="text;align=left;verticalAlign=top;spacingLeft=4;spacingRight=4;overflow=hidden;rotatable=0;points=[[0,0.5],[1,0.5]];portConstraint=eastwest;" parent="Nd1uS5bIHaKxC9Gl-ecE-147" vertex="1">
          <mxGeometry y="86" width="160" height="26" as="geometry" />
        </mxCell>
        <mxCell id="Nd1uS5bIHaKxC9Gl-ecE-151" value="~ Buy() : bool" style="text;align=left;verticalAlign=top;spacingLeft=4;spacingRight=4;overflow=hidden;rotatable=0;points=[[0,0.5],[1,0.5]];portConstraint=eastwest;" parent="Nd1uS5bIHaKxC9Gl-ecE-147" vertex="1">
          <mxGeometry y="112" width="160" height="26" as="geometry" />
        </mxCell>
        <mxCell id="Nd1uS5bIHaKxC9Gl-ecE-153" value="- UpdateCoinScore() : void" style="text;align=left;verticalAlign=top;spacingLeft=4;spacingRight=4;overflow=hidden;rotatable=0;points=[[0,0.5],[1,0.5]];portConstraint=eastwest;" parent="Nd1uS5bIHaKxC9Gl-ecE-147" vertex="1">
          <mxGeometry y="138" width="160" height="26" as="geometry" />
        </mxCell>
        <mxCell id="Nd1uS5bIHaKxC9Gl-ecE-154" value="gère" style="ellipse;whiteSpace=wrap;html=1;" parent="WIyWlLk6GJQsqaUBKTNV-1" vertex="1">
          <mxGeometry x="1080" y="80" width="80" height="60" as="geometry" />
        </mxCell>
        <mxCell id="Nd1uS5bIHaKxC9Gl-ecE-93" value="" style="group" parent="WIyWlLk6GJQsqaUBKTNV-1" vertex="1" connectable="0">
          <mxGeometry x="1600" y="248" width="239" height="30" as="geometry" />
        </mxCell>
        <mxCell id="Nd1uS5bIHaKxC9Gl-ecE-94" value="0..N" style="text;html=1;strokeColor=none;fillColor=none;align=center;verticalAlign=middle;whiteSpace=wrap;rounded=0;" parent="Nd1uS5bIHaKxC9Gl-ecE-93" vertex="1">
          <mxGeometry x="179" width="60" height="30" as="geometry" />
        </mxCell>
        <mxCell id="Nd1uS5bIHaKxC9Gl-ecE-95" value="1..1" style="text;html=1;strokeColor=none;fillColor=none;align=center;verticalAlign=middle;whiteSpace=wrap;rounded=0;" parent="Nd1uS5bIHaKxC9Gl-ecE-93" vertex="1">
          <mxGeometry width="60" height="30" as="geometry" />
        </mxCell>
        <mxCell id="Nd1uS5bIHaKxC9Gl-ecE-156" style="edgeStyle=orthogonalEdgeStyle;rounded=0;orthogonalLoop=1;jettySize=auto;html=1;entryX=0.5;entryY=0;entryDx=0;entryDy=0;endArrow=none;endFill=0;exitX=1;exitY=0.5;exitDx=0;exitDy=0;" parent="WIyWlLk6GJQsqaUBKTNV-1" source="Nd1uS5bIHaKxC9Gl-ecE-63" target="Nd1uS5bIHaKxC9Gl-ecE-130" edge="1">
          <mxGeometry relative="1" as="geometry">
            <mxPoint x="1930" y="650" as="targetPoint" />
            <mxPoint x="1930" y="400" as="sourcePoint" />
          </mxGeometry>
        </mxCell>
        <mxCell id="Nd1uS5bIHaKxC9Gl-ecE-158" style="rounded=0;orthogonalLoop=1;jettySize=auto;html=1;entryX=0.5;entryY=0;entryDx=0;entryDy=0;endArrow=none;endFill=0;exitX=0.5;exitY=1;exitDx=0;exitDy=0;" parent="WIyWlLk6GJQsqaUBKTNV-1" target="Nd1uS5bIHaKxC9Gl-ecE-28" edge="1">
          <mxGeometry relative="1" as="geometry">
            <mxPoint x="1119.38" y="660" as="targetPoint" />
            <mxPoint x="1120.38" y="410" as="sourcePoint" />
          </mxGeometry>
        </mxCell>
        <mxCell id="Nd1uS5bIHaKxC9Gl-ecE-159" style="rounded=0;orthogonalLoop=1;jettySize=auto;html=1;entryX=0.5;entryY=0;entryDx=0;entryDy=0;endArrow=none;endFill=0;exitX=0;exitY=0.5;exitDx=0;exitDy=0;edgeStyle=orthogonalEdgeStyle;" parent="WIyWlLk6GJQsqaUBKTNV-1" source="Nd1uS5bIHaKxC9Gl-ecE-28" edge="1">
          <mxGeometry relative="1" as="geometry">
            <mxPoint x="1000" y="600" as="targetPoint" />
            <mxPoint x="980.3800000000001" y="480.5" as="sourcePoint" />
          </mxGeometry>
        </mxCell>
        <mxCell id="Nd1uS5bIHaKxC9Gl-ecE-160" style="rounded=0;orthogonalLoop=1;jettySize=auto;html=1;entryX=0.5;entryY=0;entryDx=0;entryDy=0;endArrow=none;endFill=0;exitX=1;exitY=0.5;exitDx=0;exitDy=0;edgeStyle=orthogonalEdgeStyle;" parent="WIyWlLk6GJQsqaUBKTNV-1" source="Nd1uS5bIHaKxC9Gl-ecE-28" target="zkfFHV4jXpPFQw0GAbJ--0" edge="1">
          <mxGeometry relative="1" as="geometry">
            <mxPoint x="1010" y="610" as="targetPoint" />
            <mxPoint x="1090" y="529" as="sourcePoint" />
          </mxGeometry>
        </mxCell>
        <mxCell id="Nd1uS5bIHaKxC9Gl-ecE-161" value="" style="group" parent="WIyWlLk6GJQsqaUBKTNV-1" vertex="1" connectable="0">
          <mxGeometry x="2241" y="648" width="239" height="30" as="geometry" />
        </mxCell>
        <mxCell id="Nd1uS5bIHaKxC9Gl-ecE-162" value="1..1" style="text;html=1;strokeColor=none;fillColor=none;align=center;verticalAlign=middle;whiteSpace=wrap;rounded=0;" parent="Nd1uS5bIHaKxC9Gl-ecE-161" vertex="1">
          <mxGeometry x="179" width="60" height="30" as="geometry" />
        </mxCell>
        <mxCell id="Nd1uS5bIHaKxC9Gl-ecE-163" value="0..N" style="text;html=1;strokeColor=none;fillColor=none;align=center;verticalAlign=middle;whiteSpace=wrap;rounded=0;" parent="Nd1uS5bIHaKxC9Gl-ecE-161" vertex="1">
          <mxGeometry width="60" height="30" as="geometry" />
        </mxCell>
        <mxCell id="Nd1uS5bIHaKxC9Gl-ecE-164" value="1..1" style="text;html=1;strokeColor=none;fillColor=none;align=center;verticalAlign=middle;whiteSpace=wrap;rounded=0;" parent="WIyWlLk6GJQsqaUBKTNV-1" vertex="1">
          <mxGeometry x="1060" y="410" width="60" height="30" as="geometry" />
        </mxCell>
        <mxCell id="Nd1uS5bIHaKxC9Gl-ecE-165" value="1..1" style="text;html=1;strokeColor=none;fillColor=none;align=center;verticalAlign=middle;whiteSpace=wrap;rounded=0;" parent="WIyWlLk6GJQsqaUBKTNV-1" vertex="1">
          <mxGeometry x="940" y="570" width="60" height="30" as="geometry" />
        </mxCell>
        <mxCell id="Nd1uS5bIHaKxC9Gl-ecE-166" value="1..1" style="text;html=1;strokeColor=none;fillColor=none;align=center;verticalAlign=middle;whiteSpace=wrap;rounded=0;" parent="WIyWlLk6GJQsqaUBKTNV-1" vertex="1">
          <mxGeometry x="1120" y="410" width="60" height="30" as="geometry" />
        </mxCell>
        <mxCell id="Nd1uS5bIHaKxC9Gl-ecE-167" value="1..1" style="text;html=1;strokeColor=none;fillColor=none;align=center;verticalAlign=middle;whiteSpace=wrap;rounded=0;" parent="WIyWlLk6GJQsqaUBKTNV-1" vertex="1">
          <mxGeometry x="1240" y="570" width="60" height="30" as="geometry" />
        </mxCell>
        <mxCell id="Nd1uS5bIHaKxC9Gl-ecE-168" value="0..1" style="text;html=1;strokeColor=none;fillColor=none;align=center;verticalAlign=middle;whiteSpace=wrap;rounded=0;" parent="WIyWlLk6GJQsqaUBKTNV-1" vertex="1">
          <mxGeometry x="1620" y="610" width="60" height="30" as="geometry" />
        </mxCell>
        <mxCell id="Nd1uS5bIHaKxC9Gl-ecE-169" style="edgeStyle=orthogonalEdgeStyle;rounded=0;orthogonalLoop=1;jettySize=auto;html=1;endArrow=none;endFill=0;exitX=0.5;exitY=0;exitDx=0;exitDy=0;entryX=0;entryY=0.5;entryDx=0;entryDy=0;" parent="WIyWlLk6GJQsqaUBKTNV-1" source="Nd1uS5bIHaKxC9Gl-ecE-51" target="Nd1uS5bIHaKxC9Gl-ecE-63" edge="1">
          <mxGeometry relative="1" as="geometry">
            <mxPoint x="1900" y="560" as="targetPoint" />
            <mxPoint x="1730" y="620" as="sourcePoint" />
          </mxGeometry>
        </mxCell>
        <mxCell id="Nd1uS5bIHaKxC9Gl-ecE-170" value="0..1" style="text;html=1;strokeColor=none;fillColor=none;align=center;verticalAlign=middle;whiteSpace=wrap;rounded=0;" parent="WIyWlLk6GJQsqaUBKTNV-1" vertex="1">
          <mxGeometry x="1890" y="609" width="60" height="30" as="geometry" />
        </mxCell>
        <mxCell id="Nd1uS5bIHaKxC9Gl-ecE-172" value="0..1" style="text;html=1;strokeColor=none;fillColor=none;align=center;verticalAlign=middle;whiteSpace=wrap;rounded=0;" parent="WIyWlLk6GJQsqaUBKTNV-1" vertex="1">
          <mxGeometry x="2160" y="610" width="60" height="30" as="geometry" />
        </mxCell>
        <mxCell id="Nd1uS5bIHaKxC9Gl-ecE-173" value="1..1" style="text;html=1;strokeColor=none;fillColor=none;align=center;verticalAlign=middle;whiteSpace=wrap;rounded=0;" parent="WIyWlLk6GJQsqaUBKTNV-1" vertex="1">
          <mxGeometry x="1860" y="350" width="60" height="30" as="geometry" />
        </mxCell>
        <mxCell id="Nd1uS5bIHaKxC9Gl-ecE-174" value="1..1" style="text;html=1;strokeColor=none;fillColor=none;align=center;verticalAlign=middle;whiteSpace=wrap;rounded=0;" parent="WIyWlLk6GJQsqaUBKTNV-1" vertex="1">
          <mxGeometry x="1121" y="-10" width="60" height="30" as="geometry" />
        </mxCell>
        <mxCell id="Nd1uS5bIHaKxC9Gl-ecE-175" value="1..1" style="text;html=1;strokeColor=none;fillColor=none;align=center;verticalAlign=middle;whiteSpace=wrap;rounded=0;" parent="WIyWlLk6GJQsqaUBKTNV-1" vertex="1">
          <mxGeometry x="1120" y="210" width="60" height="30" as="geometry" />
        </mxCell>
        <mxCell id="Nd1uS5bIHaKxC9Gl-ecE-176" value="DisplayManager" style="swimlane;fontStyle=0;align=center;verticalAlign=top;childLayout=stackLayout;horizontal=1;startSize=26;horizontalStack=0;resizeParent=1;resizeLast=0;collapsible=1;marginBottom=0;rounded=0;shadow=0;strokeWidth=1;" parent="WIyWlLk6GJQsqaUBKTNV-1" vertex="1">
          <mxGeometry x="920" y="600" width="160" height="216" as="geometry">
            <mxRectangle x="230" y="140" width="160" height="26" as="alternateBounds" />
          </mxGeometry>
        </mxCell>
        <mxCell id="Nd1uS5bIHaKxC9Gl-ecE-179" value="- playerScore : int" style="text;align=left;verticalAlign=top;spacingLeft=4;spacingRight=4;overflow=hidden;rotatable=0;points=[[0,0.5],[1,0.5]];portConstraint=eastwest;" parent="Nd1uS5bIHaKxC9Gl-ecE-176" vertex="1">
          <mxGeometry y="26" width="160" height="26" as="geometry" />
        </mxCell>
        <mxCell id="Nd1uS5bIHaKxC9Gl-ecE-177" value="- coinScore : int" style="text;align=left;verticalAlign=top;spacingLeft=4;spacingRight=4;overflow=hidden;rotatable=0;points=[[0,0.5],[1,0.5]];portConstraint=eastwest;rounded=0;shadow=0;html=0;" parent="Nd1uS5bIHaKxC9Gl-ecE-176" vertex="1">
          <mxGeometry y="52" width="160" height="26" as="geometry" />
        </mxCell>
        <mxCell id="Nd1uS5bIHaKxC9Gl-ecE-178" value="- highestScore : int" style="text;align=left;verticalAlign=top;spacingLeft=4;spacingRight=4;overflow=hidden;rotatable=0;points=[[0,0.5],[1,0.5]];portConstraint=eastwest;" parent="Nd1uS5bIHaKxC9Gl-ecE-176" vertex="1">
          <mxGeometry y="78" width="160" height="26" as="geometry" />
        </mxCell>
        <mxCell id="Nd1uS5bIHaKxC9Gl-ecE-184" value="- timeSinceFirstMove : float" style="text;align=left;verticalAlign=top;spacingLeft=4;spacingRight=4;overflow=hidden;rotatable=0;points=[[0,0.5],[1,0.5]];portConstraint=eastwest;" parent="Nd1uS5bIHaKxC9Gl-ecE-176" vertex="1">
          <mxGeometry y="104" width="160" height="26" as="geometry" />
        </mxCell>
        <mxCell id="Nd1uS5bIHaKxC9Gl-ecE-180" value="" style="line;html=1;strokeWidth=1;align=left;verticalAlign=middle;spacingTop=-1;spacingLeft=3;spacingRight=3;rotatable=0;labelPosition=right;points=[];portConstraint=eastwest;" parent="Nd1uS5bIHaKxC9Gl-ecE-176" vertex="1">
          <mxGeometry y="130" width="160" height="8" as="geometry" />
        </mxCell>
        <mxCell id="Nd1uS5bIHaKxC9Gl-ecE-181" value="- LoadSkin() : void" style="text;align=left;verticalAlign=top;spacingLeft=4;spacingRight=4;overflow=hidden;rotatable=0;points=[[0,0.5],[1,0.5]];portConstraint=eastwest;" parent="Nd1uS5bIHaKxC9Gl-ecE-176" vertex="1">
          <mxGeometry y="138" width="160" height="26" as="geometry" />
        </mxCell>
        <mxCell id="Nd1uS5bIHaKxC9Gl-ecE-182" value="~ Purchase() : void" style="text;align=left;verticalAlign=top;spacingLeft=4;spacingRight=4;overflow=hidden;rotatable=0;points=[[0,0.5],[1,0.5]];portConstraint=eastwest;" parent="Nd1uS5bIHaKxC9Gl-ecE-176" vertex="1">
          <mxGeometry y="164" width="160" height="26" as="geometry" />
        </mxCell>
        <mxCell id="Nd1uS5bIHaKxC9Gl-ecE-183" value="- SaveSkin() : void" style="text;align=left;verticalAlign=top;spacingLeft=4;spacingRight=4;overflow=hidden;rotatable=0;points=[[0,0.5],[1,0.5]];portConstraint=eastwest;" parent="Nd1uS5bIHaKxC9Gl-ecE-176" vertex="1">
          <mxGeometry y="190" width="160" height="26" as="geometry" />
        </mxCell>
      </root>
    </mxGraphModel>
  </diagram>
</mxfile>
